<svg width="58" height="58" viewBox="0 0 58 58" fill="none" xmlns="http://www.w3.org/2000/svg">
<g filter="url(#filter0_d_5_22)">
<rect x="4" width="50" height="50" fill="#D75D5D"/>
<rect x="4" width="50" height="50" fill="#D75D5D"/>
<rect x="4" width="50" height="50" fill="#D75D5D"/>
<path d="M17.01 34.825C16.5433 34.825 16.2283 34.6733 16.065 34.37C15.925 34.0667 15.855 33.705 15.855 33.285C15.8783 32.8417 15.89 32.4333 15.89 32.06C15.89 29.7033 16.1233 27.3817 16.59 25.095C17.0567 22.8083 17.605 20.5333 18.235 18.27C18.2817 18.13 18.3633 17.8733 18.48 17.5C18.5967 17.1033 18.725 16.6833 18.865 16.24C19.005 15.7967 19.1333 15.3883 19.25 15.015C19.39 14.6417 19.4833 14.385 19.53 14.245C19.7867 13.4517 20.09 12.88 20.44 12.53C20.79 12.1567 21.2917 11.97 21.945 11.97C22.5283 11.97 23.0183 12.18 23.415 12.6C23.835 12.9967 24.1733 13.4867 24.43 14.07C24.71 14.63 24.9317 15.1667 25.095 15.68C25.4917 16.8933 25.9 18.13 26.32 19.39C26.74 20.6267 27.1367 21.8517 27.51 23.065C27.6967 23.6717 27.9533 23.975 28.28 23.975C28.7 23.975 29.0967 23.4733 29.47 22.47C29.6567 21.9567 29.8783 21.3383 30.135 20.615C30.415 19.8683 30.695 19.1217 30.975 18.375C31.255 17.605 31.5 16.9167 31.71 16.31C31.9433 15.7033 32.1067 15.2717 32.2 15.015C32.5733 14.0583 32.9817 13.2883 33.425 12.705C33.8917 12.0983 34.545 11.795 35.385 11.795C36.015 11.795 36.5283 12.0167 36.925 12.46C37.3217 12.88 37.6483 13.405 37.905 14.035C38.1617 14.6417 38.3717 15.2367 38.535 15.82C39.165 18.2 39.6433 20.615 39.97 23.065C40.32 25.515 40.495 27.9533 40.495 30.38V31.745C40.4017 32.0483 40.2733 32.2467 40.11 32.34C39.9467 32.41 39.655 32.445 39.235 32.445C38.6517 32.445 38.2317 32.06 37.975 31.29C37.835 30.87 37.7417 30.4383 37.695 29.995C37.6483 29.5517 37.6017 29.1083 37.555 28.665C37.3217 26.285 37.1117 24.3833 36.925 22.96C36.7617 21.5133 36.61 20.3933 36.47 19.6C36.3533 18.8067 36.2483 18.2 36.155 17.78C36.0617 17.3367 35.9683 16.9283 35.875 16.555C35.805 16.135 35.6067 15.925 35.28 15.925C34.93 15.925 34.65 16.135 34.44 16.555C34.3 16.975 34.09 17.5817 33.81 18.375C33.5533 19.1683 33.2617 20.0083 32.935 20.895C32.6083 21.7817 32.3167 22.5867 32.06 23.31C31.8033 24.0333 31.6283 24.535 31.535 24.815C31.4183 25.1183 31.255 25.5383 31.045 26.075C30.835 26.5883 30.5783 27.1017 30.275 27.615C29.995 28.1283 29.6683 28.5717 29.295 28.945C28.945 29.295 28.5717 29.47 28.175 29.47C27.8017 29.47 27.4633 29.3183 27.16 29.015C26.8567 28.6883 26.6 28.315 26.39 27.895C26.2033 27.475 26.0517 27.125 25.935 26.845L23.03 18.27C23.0067 18.1533 22.96 17.99 22.89 17.78C22.82 17.5467 22.7033 17.3367 22.54 17.15C22.4 16.94 22.19 16.835 21.91 16.835C21.6533 16.835 21.4433 16.9517 21.28 17.185C21.14 17.4183 21.035 17.6867 20.965 17.99C20.895 18.2933 20.8483 18.5383 20.825 18.725C20.7783 18.9583 20.7083 19.2617 20.615 19.635C20.5217 19.985 20.4283 20.3583 20.335 20.755C20.2417 21.105 20.16 21.4433 20.09 21.77C20.0433 22.0733 19.9967 22.3067 19.95 22.47C19.9267 22.6333 19.8683 22.925 19.775 23.345C19.705 23.765 19.635 24.2083 19.565 24.675C19.3783 25.8883 19.2033 27.0783 19.04 28.245C18.9 29.3883 18.76 30.6367 18.62 31.99C18.5967 32.3867 18.5383 32.8067 18.445 33.25C18.3517 33.6933 18.1883 34.0667 17.955 34.37C17.745 34.6733 17.43 34.825 17.01 34.825Z" fill="white"/>
</g>
<defs>
<filter id="filter0_d_5_22" x="0" y="0" width="58" height="58" filterUnits="userSpaceOnUse" color-interpolation-filters="sRGB">
<feFlood flood-opacity="0" result="BackgroundImageFix"/>
<feColorMatrix in="SourceAlpha" type="matrix" values="0 0 0 0 0 0 0 0 0 0 0 0 0 0 0 0 0 0 127 0" result="hardAlpha"/>
<feOffset dy="4"/>
<feGaussianBlur stdDeviation="2"/>
<feComposite in2="hardAlpha" operator="out"/>
<feColorMatrix type="matrix" values="0 0 0 0 0 0 0 0 0 0 0 0 0 0 0 0 0 0 0.25 0"/>
<feBlend mode="normal" in2="BackgroundImageFix" result="effect1_dropShadow_5_22"/>
<feBlend mode="normal" in="SourceGraphic" in2="effect1_dropShadow_5_22" result="shape"/>
</filter>
</defs>
</svg>
