<svg width="58" height="58" viewBox="0 0 58 58" fill="none" xmlns="http://www.w3.org/2000/svg">
<g filter="url(#filter0_d_5_25)">
<rect x="4" width="50" height="50" fill="#D2CDCD" fill-opacity="0.5"/>
<rect x="4" width="50" height="50" fill="#D2CDCD" fill-opacity="0.5"/>
<rect x="4" width="50" height="50" fill="#D2CDCD" fill-opacity="0.5"/>
<path d="M18.58 32.85C18.18 32.85 17.91 32.72 17.77 32.46C17.65 32.2 17.59 31.89 17.59 31.53C17.61 31.15 17.62 30.8 17.62 30.48C17.62 28.46 17.82 26.47 18.22 24.51C18.62 22.55 19.09 20.6 19.63 18.66C19.67 18.54 19.74 18.32 19.84 18C19.94 17.66 20.05 17.3 20.17 16.92C20.29 16.54 20.4 16.19 20.5 15.87C20.62 15.55 20.7 15.33 20.74 15.21C20.96 14.53 21.22 14.04 21.52 13.74C21.82 13.42 22.25 13.26 22.81 13.26C23.31 13.26 23.73 13.44 24.07 13.8C24.43 14.14 24.72 14.56 24.94 15.06C25.18 15.54 25.37 16 25.51 16.44C25.85 17.48 26.2 18.54 26.56 19.62C26.92 20.68 27.26 21.73 27.58 22.77C27.74 23.29 27.96 23.55 28.24 23.55C28.6 23.55 28.94 23.12 29.26 22.26C29.42 21.82 29.61 21.29 29.83 20.67C30.07 20.03 30.31 19.39 30.55 18.75C30.79 18.09 31 17.5 31.18 16.98C31.38 16.46 31.52 16.09 31.6 15.87C31.92 15.05 32.27 14.39 32.65 13.89C33.05 13.37 33.61 13.11 34.33 13.11C34.87 13.11 35.31 13.3 35.65 13.68C35.99 14.04 36.27 14.49 36.49 15.03C36.71 15.55 36.89 16.06 37.03 16.56C37.57 18.6 37.98 20.67 38.26 22.77C38.56 24.87 38.71 26.96 38.71 29.04V30.21C38.63 30.47 38.52 30.64 38.38 30.72C38.24 30.78 37.99 30.81 37.63 30.81C37.13 30.81 36.77 30.48 36.55 29.82C36.43 29.46 36.35 29.09 36.31 28.71C36.27 28.33 36.23 27.95 36.19 27.57C35.99 25.53 35.81 23.9 35.65 22.68C35.51 21.44 35.38 20.48 35.26 19.8C35.16 19.12 35.07 18.6 34.99 18.24C34.91 17.86 34.83 17.51 34.75 17.19C34.69 16.83 34.52 16.65 34.24 16.65C33.94 16.65 33.7 16.83 33.52 17.19C33.4 17.55 33.22 18.07 32.98 18.75C32.76 19.43 32.51 20.15 32.23 20.91C31.95 21.67 31.7 22.36 31.48 22.98C31.26 23.6 31.11 24.03 31.03 24.27C30.93 24.53 30.79 24.89 30.61 25.35C30.43 25.79 30.21 26.23 29.95 26.67C29.71 27.11 29.43 27.49 29.11 27.81C28.81 28.11 28.49 28.26 28.15 28.26C27.83 28.26 27.54 28.13 27.28 27.87C27.02 27.59 26.8 27.27 26.62 26.91C26.46 26.55 26.33 26.25 26.23 26.01L23.74 18.66C23.72 18.56 23.68 18.42 23.62 18.24C23.56 18.04 23.46 17.86 23.32 17.7C23.2 17.52 23.02 17.43 22.78 17.43C22.56 17.43 22.38 17.53 22.24 17.73C22.12 17.93 22.03 18.16 21.97 18.42C21.91 18.68 21.87 18.89 21.85 19.05C21.81 19.25 21.75 19.51 21.67 19.83C21.59 20.13 21.51 20.45 21.43 20.79C21.35 21.09 21.28 21.38 21.22 21.66C21.18 21.92 21.14 22.12 21.1 22.26C21.08 22.4 21.03 22.65 20.95 23.01C20.89 23.37 20.83 23.75 20.77 24.15C20.61 25.19 20.46 26.21 20.32 27.21C20.2 28.19 20.08 29.26 19.96 30.42C19.94 30.76 19.89 31.12 19.81 31.5C19.73 31.88 19.59 32.2 19.39 32.46C19.21 32.72 18.94 32.85 18.58 32.85Z" fill="white"/>
</g>
<defs>
<filter id="filter0_d_5_25" x="0" y="0" width="58" height="58" filterUnits="userSpaceOnUse" color-interpolation-filters="sRGB">
<feFlood flood-opacity="0" result="BackgroundImageFix"/>
<feColorMatrix in="SourceAlpha" type="matrix" values="0 0 0 0 0 0 0 0 0 0 0 0 0 0 0 0 0 0 127 0" result="hardAlpha"/>
<feOffset dy="4"/>
<feGaussianBlur stdDeviation="2"/>
<feComposite in2="hardAlpha" operator="out"/>
<feColorMatrix type="matrix" values="0 0 0 0 0 0 0 0 0 0 0 0 0 0 0 0 0 0 0.25 0"/>
<feBlend mode="normal" in2="BackgroundImageFix" result="effect1_dropShadow_5_25"/>
<feBlend mode="normal" in="SourceGraphic" in2="effect1_dropShadow_5_25" result="shape"/>
</filter>
</defs>
</svg>
