<svg width="58" height="58" viewBox="0 0 58 58" fill="none" xmlns="http://www.w3.org/2000/svg">
<g filter="url(#filter0_d_5_62)">
<rect x="4" width="50" height="50" fill="#D75D5D"/>
<path d="M24.94 26.34C24.62 26.34 24.4 26.28 24.28 26.16C24.16 26.04 24.1 25.84 24.1 25.56C24.1 24.94 24.26 24.61 24.58 24.57C25.56 24.47 26.4 24.4 27.1 24.36C27.8 24.3 28.44 24.26 29.02 24.24C29.6 24.2 30.19 24.17 30.79 24.15C31.39 24.13 32.06 24.11 32.8 24.09C33 24.09 33.19 24.21 33.37 24.45C33.55 24.69 33.64 25 33.64 25.38C33.64 25.5 33.59 25.66 33.49 25.86C33.39 26.06 33.27 26.15 33.13 26.13C32.17 26.09 31.05 26.12 29.77 26.22C28.51 26.3 26.9 26.34 24.94 26.34Z" fill="white"/>
</g>
<defs>
<filter id="filter0_d_5_62" x="0" y="0" width="58" height="58" filterUnits="userSpaceOnUse" color-interpolation-filters="sRGB">
<feFlood flood-opacity="0" result="BackgroundImageFix"/>
<feColorMatrix in="SourceAlpha" type="matrix" values="0 0 0 0 0 0 0 0 0 0 0 0 0 0 0 0 0 0 127 0" result="hardAlpha"/>
<feOffset dy="4"/>
<feGaussianBlur stdDeviation="2"/>
<feComposite in2="hardAlpha" operator="out"/>
<feColorMatrix type="matrix" values="0 0 0 0 0 0 0 0 0 0 0 0 0 0 0 0 0 0 0.25 0"/>
<feBlend mode="normal" in2="BackgroundImageFix" result="effect1_dropShadow_5_62"/>
<feBlend mode="normal" in="SourceGraphic" in2="effect1_dropShadow_5_62" result="shape"/>
</filter>
</defs>
</svg>
