<svg width="138" height="138" viewBox="0 0 138 138" fill="none" xmlns="http://www.w3.org/2000/svg">
<g filter="url(#filter0_d_5_8)">
<rect x="4" width="130" height="130" rx="65" fill="#FF5C00"/>
<rect x="23" y="19" width="92" height="92" rx="46" fill="white"/>
<path d="M38.23 75.35C37.67 75.35 37.2383 75.14 36.935 74.72C36.655 74.3 36.4567 73.7867 36.34 73.18C36.2467 72.5733 36.1883 71.9783 36.165 71.395C36.165 70.8117 36.165 70.3683 36.165 70.065V66.18C36.165 64.43 36.2583 62.6217 36.445 60.755C36.6317 58.8883 36.725 56.905 36.725 54.805C35.5117 54.805 34.7067 54.7 34.31 54.49C33.9367 54.28 33.75 53.825 33.75 53.125C33.75 52.7283 33.96 52.3783 34.38 52.075C34.8 51.7717 35.3833 51.5733 36.13 51.48C36.34 51.41 36.7367 51.34 37.32 51.27C37.9267 51.2 38.6033 51.1417 39.35 51.095C40.0967 51.025 40.8083 50.9783 41.485 50.955C42.185 50.9083 42.7333 50.885 43.13 50.885C45.44 50.885 47.33 51.0833 48.8 51.48C50.27 51.8533 51.355 52.495 52.055 53.405C52.7783 54.315 53.14 55.575 53.14 57.185C53.14 58.3283 52.8367 59.425 52.23 60.475C51.6467 61.5017 50.8533 62.4233 49.85 63.24C48.8467 64.0567 47.715 64.7217 46.455 65.235C45.195 65.7483 43.9117 66.0633 42.605 66.18C42.3717 66.2033 42.1267 66.2267 41.87 66.25C41.6133 66.25 41.3333 66.25 41.03 66.25C40.33 66.25 39.6417 66.215 38.965 66.145C38.965 67.4283 38.9883 68.5367 39.035 69.47C39.105 70.38 39.14 71.2433 39.14 72.06V73.145C39.14 73.5417 39.105 73.9383 39.035 74.335C38.9417 74.7317 38.825 75 38.685 75.14C38.5683 75.28 38.4167 75.35 38.23 75.35ZM43.235 63.24C43.7717 63.24 44.4483 63.065 45.265 62.715C46.0817 62.3417 46.8983 61.8633 47.715 61.28C48.5317 60.6733 49.2083 60.0083 49.745 59.285C50.305 58.5617 50.585 57.85 50.585 57.15C50.585 56.1933 50.34 55.4933 49.85 55.05C49.36 54.5833 48.7533 54.2683 48.03 54.105C47.33 53.9417 46.6183 53.8017 45.895 53.685C45.5217 53.615 45.1017 53.5683 44.635 53.545C44.1917 53.5217 43.7367 53.51 43.27 53.51C42.1267 53.51 41.205 53.5683 40.505 53.685C40.3417 53.7083 40.1783 53.79 40.015 53.93C39.8517 54.0467 39.7467 54.245 39.7 54.525C39.5833 55.3883 39.4783 56.345 39.385 57.395C39.2917 58.445 39.21 59.4833 39.14 60.51C39.07 61.5133 39.0117 62.4233 38.965 63.24H43.235ZM59.4594 75.175C59.0161 75.175 58.6777 75 58.4444 74.65C58.2111 74.3 58.0477 73.8683 57.9544 73.355C57.8611 72.8417 57.8027 72.3283 57.7794 71.815C57.7794 71.3017 57.7794 70.8933 57.7794 70.59C57.7794 70.4033 57.7677 70.1933 57.7444 69.96C57.7444 69.7267 57.7444 69.4933 57.7444 69.26C57.7444 68.0933 57.7794 66.6817 57.8494 65.025C57.9194 63.345 58.0127 61.5833 58.1294 59.74C58.2694 57.8733 58.4211 56.0533 58.5844 54.28C58.7711 52.5067 58.9694 50.9317 59.1794 49.555C59.3661 48.8783 59.6111 48.3883 59.9144 48.085C60.2411 47.7817 60.5561 47.63 60.8594 47.63C61.1394 47.63 61.3844 47.7583 61.5944 48.015C61.8277 48.2717 61.9444 48.6333 61.9444 49.1C61.9444 49.1933 61.9444 49.275 61.9444 49.345C61.9444 49.415 61.9327 49.4967 61.9094 49.59C61.3261 52.4133 60.9527 55.365 60.7894 58.445C60.6261 61.525 60.5444 64.4883 60.5444 67.335C60.5444 68.5017 60.5561 69.54 60.5794 70.45C60.6261 71.3367 60.6494 72.2583 60.6494 73.215C60.6494 73.7283 60.5327 74.1833 60.2994 74.58C60.0894 74.9767 59.8094 75.175 59.4594 75.175ZM71.7704 75.35C70.7204 75.35 69.7404 75.1167 68.8304 74.65C67.9437 74.1833 67.1971 73.5533 66.5904 72.76C65.9837 71.9667 65.5871 71.08 65.4004 70.1V68.245C65.4004 66.915 65.6454 65.5733 66.1354 64.22C66.6254 62.8667 67.3021 61.6183 68.1654 60.475C69.0521 59.3317 70.0904 58.4217 71.2804 57.745C72.4937 57.045 73.8004 56.695 75.2004 56.695C76.0871 56.695 76.9387 56.8467 77.7554 57.15C78.5954 57.4533 79.3421 57.8033 79.9954 58.2C80.1354 57.22 80.3104 56.5433 80.5204 56.17C80.7304 55.7967 81.0921 55.61 81.6054 55.61C82.0021 55.61 82.2821 55.7383 82.4454 55.995C82.6087 56.2283 82.6904 56.6483 82.6904 57.255C82.6904 58.655 82.6554 60.0317 82.5854 61.385C82.5387 62.715 82.5154 64.08 82.5154 65.48C82.5154 66.6 82.5737 67.755 82.6904 68.945C82.8304 70.135 82.9004 71.2783 82.9004 72.375C82.9004 72.725 82.9004 73.075 82.9004 73.425C82.9237 73.775 82.8654 74.0667 82.7254 74.3C82.6087 74.51 82.3521 74.615 81.9554 74.615C81.3954 74.615 80.9754 74.3583 80.6954 73.845C80.4387 73.3083 80.2637 72.6667 80.1704 71.92C80.0771 71.1733 79.9837 70.4733 79.8904 69.82C79.6571 70.45 79.2604 71.0683 78.7004 71.675C78.1637 72.2817 77.6154 72.8067 77.0554 73.25C76.5187 73.67 76.0987 73.9733 75.7954 74.16C75.5154 74.3233 75.5154 74.3 75.7954 74.09C75.2821 74.4633 74.6404 74.7667 73.8704 75C73.1237 75.2333 72.4237 75.35 71.7704 75.35ZM71.4204 73.145C72.4704 73.145 73.4504 72.8417 74.3604 72.235C75.2704 71.6283 76.0637 70.8467 76.7404 69.89C77.4404 68.9333 77.9771 67.93 78.3504 66.88C78.7471 65.83 78.9454 64.8617 78.9454 63.975C78.9454 63.5317 78.8871 63.03 78.7704 62.47C78.6771 61.8867 78.4904 61.3267 78.2104 60.79C77.9304 60.2533 77.5454 59.81 77.0554 59.46C76.5887 59.11 75.9704 58.935 75.2004 58.935C74.1971 58.935 73.2404 59.2617 72.3304 59.915C71.4204 60.545 70.6037 61.3617 69.8804 62.365C69.1804 63.345 68.6321 64.36 68.2354 65.41C67.8387 66.46 67.6404 67.405 67.6404 68.245C67.6404 68.875 67.7454 69.575 67.9554 70.345C68.1887 71.115 68.5737 71.78 69.1104 72.34C69.6704 72.8767 70.4404 73.145 71.4204 73.145ZM91.8035 84.17C91.7335 84.17 91.6285 84.0767 91.4885 83.89C91.3485 83.7033 91.2785 83.4233 91.2785 83.05C91.2785 82.7233 91.3135 82.3967 91.3835 82.07C91.4768 81.7433 91.5935 81.4167 91.7335 81.09C91.8968 80.74 92.0602 80.39 92.2235 80.04C92.3868 79.69 92.5502 79.34 92.7135 78.99C92.8535 78.64 93.0168 78.1967 93.2035 77.66C93.4135 77.1233 93.6118 76.575 93.7985 76.015C93.9852 75.4783 94.1368 75.0117 94.2535 74.615C94.3935 74.2183 94.4635 73.9967 94.4635 73.95V73.04C93.0168 73.04 91.8152 72.7717 90.8585 72.235C89.9018 71.6983 89.1435 70.9867 88.5835 70.1C88.0235 69.2133 87.6152 68.2333 87.3585 67.16C87.1018 66.0633 86.9268 64.955 86.8335 63.835C86.7635 62.6917 86.7285 61.63 86.7285 60.65C86.7285 60.1833 86.7402 59.7283 86.7635 59.285C86.7868 58.8417 86.8452 58.3983 86.9385 57.955C87.0552 57.4183 87.1952 57.0683 87.3585 56.905C87.5452 56.7183 87.7202 56.625 87.8835 56.625C88.4202 56.625 88.7935 56.835 89.0035 57.255C89.2368 57.6517 89.3535 58.235 89.3535 59.005C89.3535 59.5417 89.3185 60.055 89.2485 60.545C89.1785 61.0117 89.1435 61.525 89.1435 62.085V62.435C89.1435 62.645 89.1785 63.0533 89.2485 63.66C89.3418 64.2433 89.4352 64.8383 89.5285 65.445C89.6218 66.0517 89.6918 66.5067 89.7385 66.81C89.8552 67.3233 90.0302 67.8717 90.2635 68.455C90.4968 69.015 90.8235 69.4933 91.2435 69.89C91.6868 70.2867 92.2468 70.485 92.9235 70.485C93.8335 70.485 94.6385 70.1583 95.3385 69.505C96.0618 68.8283 96.7152 67.965 97.2985 66.915C97.9052 65.8417 98.4535 64.7217 98.9435 63.555C99.1302 63.1583 99.3052 62.7617 99.4685 62.365C99.6319 61.9683 99.7952 61.5833 99.9585 61.21C100.145 60.8367 100.32 60.4867 100.484 60.16C100.647 59.8333 100.822 59.5183 101.009 59.215C101.382 58.6083 101.72 58.1767 102.024 57.92C102.35 57.6633 102.665 57.535 102.969 57.535C103.272 57.535 103.494 57.6167 103.634 57.78C103.797 57.9433 103.879 58.2233 103.879 58.62C103.879 59.3433 103.75 60.055 103.494 60.755C103.26 61.455 102.957 62.155 102.584 62.855C102.187 63.5783 101.767 64.29 101.324 64.99C100.88 65.69 100.495 66.39 100.169 67.09C99.9818 67.51 99.7252 68.0817 99.3985 68.805C99.0952 69.505 98.7685 70.24 98.4185 71.01C98.0918 71.7567 97.8002 72.4217 97.5435 73.005C97.3102 73.5883 97.1702 73.95 97.1235 74.09C97.1002 74.2067 97.0068 74.475 96.8435 74.895C96.6802 75.2917 96.4935 75.77 96.2835 76.33C96.0968 76.89 95.8985 77.45 95.6885 78.01C95.4785 78.5933 95.2918 79.0833 95.1285 79.48C94.9885 79.9 94.8952 80.1683 94.8485 80.285C94.7085 80.705 94.5102 81.2183 94.2535 81.825C93.9968 82.4317 93.6702 82.9683 93.2735 83.435C92.9002 83.925 92.4102 84.17 91.8035 84.17Z" fill="black"/>
</g>
<defs>
<filter id="filter0_d_5_8" x="0" y="0" width="138" height="138" filterUnits="userSpaceOnUse" color-interpolation-filters="sRGB">
<feFlood flood-opacity="0" result="BackgroundImageFix"/>
<feColorMatrix in="SourceAlpha" type="matrix" values="0 0 0 0 0 0 0 0 0 0 0 0 0 0 0 0 0 0 127 0" result="hardAlpha"/>
<feOffset dy="4"/>
<feGaussianBlur stdDeviation="2"/>
<feComposite in2="hardAlpha" operator="out"/>
<feColorMatrix type="matrix" values="0 0 0 0 0 0 0 0 0 0 0 0 0 0 0 0 0 0 0.25 0"/>
<feBlend mode="normal" in2="BackgroundImageFix" result="effect1_dropShadow_5_8"/>
<feBlend mode="normal" in="SourceGraphic" in2="effect1_dropShadow_5_8" result="shape"/>
</filter>
</defs>
</svg>
