<svg width="58" height="58" viewBox="0 0 58 58" fill="none" xmlns="http://www.w3.org/2000/svg">
<g filter="url(#filter0_d_5_61)">
<rect x="4" width="50" height="50" fill="#D75D5D"/>
<path d="M29.49 31.68C29.31 31.68 29.08 31.66 28.8 31.62C28.52 31.56 28.38 31.41 28.38 31.17V26.25L27.54 25.83H26.76C26.2 25.83 25.63 25.86 25.05 25.92C24.49 25.98 23.92 26.01 23.34 26.01H22.29C22.17 25.97 22.07 25.89 21.99 25.77C21.93 25.63 21.9 25.37 21.9 24.99C21.9 24.71 22 24.46 22.2 24.24C22.4 24.02 22.63 23.91 22.89 23.91H28.05C28.05 22.91 28.02 22.06 27.96 21.36C27.92 20.66 27.9 19.98 27.9 19.32V18.45C27.94 18.31 28.06 18.18 28.26 18.06C28.46 17.94 28.67 17.88 28.89 17.88C29.61 17.88 29.97 18.41 29.97 19.47V23.91C31.03 23.91 31.98 23.88 32.82 23.82C33.66 23.76 34.45 23.73 35.19 23.73C35.59 23.73 35.87 23.81 36.03 23.97C36.21 24.11 36.3 24.29 36.3 24.51C36.3 24.83 36.22 25.08 36.06 25.26C35.92 25.42 35.85 25.5 35.85 25.5H30.15V31.35C30.15 31.45 30.06 31.53 29.88 31.59C29.7 31.65 29.57 31.68 29.49 31.68Z" fill="white"/>
</g>
<defs>
<filter id="filter0_d_5_61" x="0" y="0" width="58" height="58" filterUnits="userSpaceOnUse" color-interpolation-filters="sRGB">
<feFlood flood-opacity="0" result="BackgroundImageFix"/>
<feColorMatrix in="SourceAlpha" type="matrix" values="0 0 0 0 0 0 0 0 0 0 0 0 0 0 0 0 0 0 127 0" result="hardAlpha"/>
<feOffset dy="4"/>
<feGaussianBlur stdDeviation="2"/>
<feComposite in2="hardAlpha" operator="out"/>
<feColorMatrix type="matrix" values="0 0 0 0 0 0 0 0 0 0 0 0 0 0 0 0 0 0 0.25 0"/>
<feBlend mode="normal" in2="BackgroundImageFix" result="effect1_dropShadow_5_61"/>
<feBlend mode="normal" in="SourceGraphic" in2="effect1_dropShadow_5_61" result="shape"/>
</filter>
</defs>
</svg>
