<svg width="58" height="58" viewBox="0 0 58 58" fill="none" xmlns="http://www.w3.org/2000/svg">
<g filter="url(#filter0_d_5_18)">
<rect x="4" width="50" height="50" fill="#D75D5D"/>
<rect x="4" width="50" height="50" fill="#D75D5D"/>
<rect x="4" width="50" height="50" fill="#D75D5D"/>
<path d="M21.11 34.65C20.8767 34.65 20.6433 34.58 20.41 34.44C20.2 34.3 20.06 34.1483 19.99 33.985V33.005C19.99 32.515 20.06 32.025 20.2 31.535C20.3633 31.045 20.4917 30.555 20.585 30.065C20.6317 29.8783 20.6667 29.6683 20.69 29.435C20.7133 29.1783 20.725 28.77 20.725 28.21H18.765C18.6017 28.1867 18.4383 28.1633 18.275 28.14C18.1117 28.1167 17.9717 28.0933 17.855 28.07C17.6917 28 17.54 27.895 17.4 27.755C17.2833 27.5917 17.225 27.3117 17.225 26.915C17.225 26.4483 17.33 26.1333 17.54 25.97C17.7733 25.8067 18.135 25.6783 18.625 25.585C18.8817 25.5383 19.15 25.5033 19.43 25.48C19.7333 25.4333 20.0133 25.3983 20.27 25.375C20.55 25.3283 20.8417 25.2583 21.145 25.165C21.4483 25.0717 21.7283 24.92 21.985 24.71C22.1017 24.6167 22.23 24.4883 22.37 24.325C22.5333 24.1617 22.615 24.08 22.615 24.08C22.6617 24.0333 22.7083 23.9633 22.755 23.87C22.8017 23.7533 22.86 23.6133 22.93 23.45C22.9767 23.3567 23.0233 23.2517 23.07 23.135C23.1167 22.995 23.1517 22.8667 23.175 22.75C23.245 22.5633 23.3033 22.3883 23.35 22.225C23.42 22.0383 23.49 21.8983 23.56 21.805C23.7233 21.5017 23.9683 21.0233 24.295 20.37C24.6217 19.6933 24.9717 18.97 25.345 18.2C25.7417 17.4067 26.0917 16.695 26.395 16.065C26.7217 15.435 26.955 15.0033 27.095 14.77C27.3283 14.3733 27.5617 13.9767 27.795 13.58C28.0517 13.1833 28.3317 12.81 28.635 12.46C29.2883 11.6667 29.86 11.27 30.35 11.27C30.7933 11.27 31.1783 11.3867 31.505 11.62C31.8317 11.83 32.135 12.1333 32.415 12.53C32.695 12.95 32.9283 13.3933 33.115 13.86C33.325 14.3033 33.535 14.7583 33.745 15.225C34.9583 17.8617 36.0317 20.6033 36.965 23.45C37.9217 26.2967 38.68 29.1317 39.24 31.955V32.445C39.24 32.8417 39.1233 33.1917 38.89 33.495C38.6567 33.775 38.4583 33.915 38.295 33.915C37.735 33.915 37.315 33.7167 37.035 33.32C36.7783 32.9233 36.5683 32.3283 36.405 31.535C36.3117 31.1383 36.23 30.7533 36.16 30.38C36.1133 29.9833 36.055 29.61 35.985 29.26C35.8917 28.9333 35.74 28.5833 35.53 28.21C35.3433 27.8133 35.1567 27.4983 34.97 27.265H31.085C30.7117 27.265 30.2917 27.265 29.825 27.265C29.3583 27.2417 28.8683 27.23 28.355 27.23C27.8417 27.23 27.3167 27.265 26.78 27.335C26.2433 27.3817 25.7417 27.4983 25.275 27.685C24.6683 27.9183 24.2017 28.28 23.875 28.77C23.5717 29.26 23.3383 29.8083 23.175 30.415C23.035 30.9983 22.9067 31.57 22.79 32.13C22.6733 32.76 22.5217 33.3433 22.335 33.88C22.1717 34.3933 21.7633 34.65 21.11 34.65ZM30.14 24.71C31.4467 24.71 32.3567 24.6983 32.87 24.675C33.3833 24.6517 33.7217 24.535 33.885 24.325C33.955 24.1383 33.99 23.9283 33.99 23.695C33.99 23.3683 33.9317 23.0067 33.815 22.61C33.7217 22.19 33.605 21.8167 33.465 21.49C33.3717 21.2567 33.2317 20.9067 33.045 20.44C32.8583 19.95 32.6483 19.4133 32.415 18.83C32.1817 18.2467 31.96 17.6867 31.75 17.15C31.54 16.6133 31.3767 16.1933 31.26 15.89C31.2133 15.7267 31.1083 15.5633 30.945 15.4C30.805 15.2133 30.63 15.12 30.42 15.12C30.2333 15.12 30.0467 15.2367 29.86 15.47C29.65 15.75 29.3583 16.2283 28.985 16.905C28.635 17.5817 28.25 18.3283 27.83 19.145C27.41 19.9617 27.025 20.755 26.675 21.525C26.325 22.2717 26.0683 22.855 25.905 23.275C25.765 23.5783 25.695 23.8233 25.695 24.01C25.695 24.3133 25.8117 24.5117 26.045 24.605C26.3017 24.675 26.5583 24.71 26.815 24.71H30.14Z" fill="white"/>
</g>
<defs>
<filter id="filter0_d_5_18" x="0" y="0" width="58" height="58" filterUnits="userSpaceOnUse" color-interpolation-filters="sRGB">
<feFlood flood-opacity="0" result="BackgroundImageFix"/>
<feColorMatrix in="SourceAlpha" type="matrix" values="0 0 0 0 0 0 0 0 0 0 0 0 0 0 0 0 0 0 127 0" result="hardAlpha"/>
<feOffset dy="4"/>
<feGaussianBlur stdDeviation="2"/>
<feComposite in2="hardAlpha" operator="out"/>
<feColorMatrix type="matrix" values="0 0 0 0 0 0 0 0 0 0 0 0 0 0 0 0 0 0 0.25 0"/>
<feBlend mode="normal" in2="BackgroundImageFix" result="effect1_dropShadow_5_18"/>
<feBlend mode="normal" in="SourceGraphic" in2="effect1_dropShadow_5_18" result="shape"/>
</filter>
</defs>
</svg>
