<svg width="58" height="58" viewBox="0 0 58 58" fill="none" xmlns="http://www.w3.org/2000/svg">
<g filter="url(#filter0_d_5_16)">
<rect x="4" width="50" height="50" fill="#D2CDCD" fill-opacity="0.5"/>
<rect x="4" width="50" height="50" fill="#D2CDCD" fill-opacity="0.5"/>
<rect x="4" width="50" height="50" fill="#D2CDCD" fill-opacity="0.5"/>
<path d="M22.38 32.7C22.18 32.7 21.98 32.64 21.78 32.52C21.6 32.4 21.48 32.27 21.42 32.13V31.29C21.42 30.87 21.48 30.45 21.6 30.03C21.74 29.61 21.85 29.19 21.93 28.77C21.97 28.61 22 28.43 22.02 28.23C22.04 28.01 22.05 27.66 22.05 27.18H20.37C20.23 27.16 20.09 27.14 19.95 27.12C19.81 27.1 19.69 27.08 19.59 27.06C19.45 27 19.32 26.91 19.2 26.79C19.1 26.65 19.05 26.41 19.05 26.07C19.05 25.67 19.14 25.4 19.32 25.26C19.52 25.12 19.83 25.01 20.25 24.93C20.47 24.89 20.7 24.86 20.94 24.84C21.2 24.8 21.44 24.77 21.66 24.75C21.9 24.71 22.15 24.65 22.41 24.57C22.67 24.49 22.91 24.36 23.13 24.18C23.23 24.1 23.34 23.99 23.46 23.85C23.6 23.71 23.67 23.64 23.67 23.64C23.71 23.6 23.75 23.54 23.79 23.46C23.83 23.36 23.88 23.24 23.94 23.1C23.98 23.02 24.02 22.93 24.06 22.83C24.1 22.71 24.13 22.6 24.15 22.5C24.21 22.34 24.26 22.19 24.3 22.05C24.36 21.89 24.42 21.77 24.48 21.69C24.62 21.43 24.83 21.02 25.11 20.46C25.39 19.88 25.69 19.26 26.01 18.6C26.35 17.92 26.65 17.31 26.91 16.77C27.19 16.23 27.39 15.86 27.51 15.66C27.71 15.32 27.91 14.98 28.11 14.64C28.33 14.3 28.57 13.98 28.83 13.68C29.39 13 29.88 12.66 30.3 12.66C30.68 12.66 31.01 12.76 31.29 12.96C31.57 13.14 31.83 13.4 32.07 13.74C32.31 14.1 32.51 14.48 32.67 14.88C32.85 15.26 33.03 15.65 33.21 16.05C34.25 18.31 35.17 20.66 35.97 23.1C36.79 25.54 37.44 27.97 37.92 30.39V30.81C37.92 31.15 37.82 31.45 37.62 31.71C37.42 31.95 37.25 32.07 37.11 32.07C36.63 32.07 36.27 31.9 36.03 31.56C35.81 31.22 35.63 30.71 35.49 30.03C35.41 29.69 35.34 29.36 35.28 29.04C35.24 28.7 35.19 28.38 35.13 28.08C35.05 27.8 34.92 27.5 34.74 27.18C34.58 26.84 34.42 26.57 34.26 26.37H30.93C30.61 26.37 30.25 26.37 29.85 26.37C29.45 26.35 29.03 26.34 28.59 26.34C28.15 26.34 27.7 26.37 27.24 26.43C26.78 26.47 26.35 26.57 25.95 26.73C25.43 26.93 25.03 27.24 24.75 27.66C24.49 28.08 24.29 28.55 24.15 29.07C24.03 29.57 23.92 30.06 23.82 30.54C23.72 31.08 23.59 31.58 23.43 32.04C23.29 32.48 22.94 32.7 22.38 32.7ZM30.12 24.18C31.24 24.18 32.02 24.17 32.46 24.15C32.9 24.13 33.19 24.03 33.33 23.85C33.39 23.69 33.42 23.51 33.42 23.31C33.42 23.03 33.37 22.72 33.27 22.38C33.19 22.02 33.09 21.7 32.97 21.42C32.89 21.22 32.77 20.92 32.61 20.52C32.45 20.1 32.27 19.64 32.07 19.14C31.87 18.64 31.68 18.16 31.5 17.7C31.32 17.24 31.18 16.88 31.08 16.62C31.04 16.48 30.95 16.34 30.81 16.2C30.69 16.04 30.54 15.96 30.36 15.96C30.2 15.96 30.04 16.06 29.88 16.26C29.7 16.5 29.45 16.91 29.13 17.49C28.83 18.07 28.5 18.71 28.14 19.41C27.78 20.11 27.45 20.79 27.15 21.45C26.85 22.09 26.63 22.59 26.49 22.95C26.37 23.21 26.31 23.42 26.31 23.58C26.31 23.84 26.41 24.01 26.61 24.09C26.83 24.15 27.05 24.18 27.27 24.18H30.12Z" fill="white"/>
</g>
<defs>
<filter id="filter0_d_5_16" x="0" y="0" width="58" height="58" filterUnits="userSpaceOnUse" color-interpolation-filters="sRGB">
<feFlood flood-opacity="0" result="BackgroundImageFix"/>
<feColorMatrix in="SourceAlpha" type="matrix" values="0 0 0 0 0 0 0 0 0 0 0 0 0 0 0 0 0 0 127 0" result="hardAlpha"/>
<feOffset dy="4"/>
<feGaussianBlur stdDeviation="2"/>
<feComposite in2="hardAlpha" operator="out"/>
<feColorMatrix type="matrix" values="0 0 0 0 0 0 0 0 0 0 0 0 0 0 0 0 0 0 0.25 0"/>
<feBlend mode="normal" in2="BackgroundImageFix" result="effect1_dropShadow_5_16"/>
<feBlend mode="normal" in="SourceGraphic" in2="effect1_dropShadow_5_16" result="shape"/>
</filter>
</defs>
</svg>
