<svg width="78" height="48" viewBox="0 0 78 48" fill="none" xmlns="http://www.w3.org/2000/svg">
<g filter="url(#filter0_d_5_47)">
<rect x="4" width="70" height="40" fill="#D75D5D" fill-opacity="0.7"/>
<path d="M22.72 24.9C22.4533 24.9 22.2733 24.8133 22.18 24.64C22.1 24.4667 22.06 24.26 22.06 24.02C22.0733 23.7667 22.08 23.5333 22.08 23.32C22.08 21.9733 22.2133 20.6467 22.48 19.34C22.7467 18.0333 23.06 16.7333 23.42 15.44C23.4467 15.36 23.4933 15.2133 23.56 15C23.6267 14.7733 23.7 14.5333 23.78 14.28C23.86 14.0267 23.9333 13.7933 24 13.58C24.08 13.3667 24.1333 13.22 24.16 13.14C24.3067 12.6867 24.48 12.36 24.68 12.16C24.88 11.9467 25.1667 11.84 25.54 11.84C25.8733 11.84 26.1533 11.96 26.38 12.2C26.62 12.4267 26.8133 12.7067 26.96 13.04C27.12 13.36 27.2467 13.6667 27.34 13.96C27.5667 14.6533 27.8 15.36 28.04 16.08C28.28 16.7867 28.5067 17.4867 28.72 18.18C28.8267 18.5267 28.9733 18.7 29.16 18.7C29.4 18.7 29.6267 18.4133 29.84 17.84C29.9467 17.5467 30.0733 17.1933 30.22 16.78C30.38 16.3533 30.54 15.9267 30.7 15.5C30.86 15.06 31 14.6667 31.12 14.32C31.2533 13.9733 31.3467 13.7267 31.4 13.58C31.6133 13.0333 31.8467 12.5933 32.1 12.26C32.3667 11.9133 32.74 11.74 33.22 11.74C33.58 11.74 33.8733 11.8667 34.1 12.12C34.3267 12.36 34.5133 12.66 34.66 13.02C34.8067 13.3667 34.9267 13.7067 35.02 14.04C35.38 15.4 35.6533 16.78 35.84 18.18C36.04 19.58 36.14 20.9733 36.14 22.36V23.14C36.0867 23.3133 36.0133 23.4267 35.92 23.48C35.8267 23.52 35.66 23.54 35.42 23.54C35.0867 23.54 34.8467 23.32 34.7 22.88C34.62 22.64 34.5667 22.3933 34.54 22.14C34.5133 21.8867 34.4867 21.6333 34.46 21.38C34.3267 20.02 34.2067 18.9333 34.1 18.12C34.0067 17.2933 33.92 16.6533 33.84 16.2C33.7733 15.7467 33.7133 15.4 33.66 15.16C33.6067 14.9067 33.5533 14.6733 33.5 14.46C33.46 14.22 33.3467 14.1 33.16 14.1C32.96 14.1 32.8 14.22 32.68 14.46C32.6 14.7 32.48 15.0467 32.32 15.5C32.1733 15.9533 32.0067 16.4333 31.82 16.94C31.6333 17.4467 31.4667 17.9067 31.32 18.32C31.1733 18.7333 31.0733 19.02 31.02 19.18C30.9533 19.3533 30.86 19.5933 30.74 19.9C30.62 20.1933 30.4733 20.4867 30.3 20.78C30.14 21.0733 29.9533 21.3267 29.74 21.54C29.54 21.74 29.3267 21.84 29.1 21.84C28.8867 21.84 28.6933 21.7533 28.52 21.58C28.3467 21.3933 28.2 21.18 28.08 20.94C27.9733 20.7 27.8867 20.5 27.82 20.34L26.16 15.44C26.1467 15.3733 26.12 15.28 26.08 15.16C26.04 15.0267 25.9733 14.9067 25.88 14.8C25.8 14.68 25.68 14.62 25.52 14.62C25.3733 14.62 25.2533 14.6867 25.16 14.82C25.08 14.9533 25.02 15.1067 24.98 15.28C24.94 15.4533 24.9133 15.5933 24.9 15.7C24.8733 15.8333 24.8333 16.0067 24.78 16.22C24.7267 16.42 24.6733 16.6333 24.62 16.86C24.5667 17.06 24.52 17.2533 24.48 17.44C24.4533 17.6133 24.4267 17.7467 24.4 17.84C24.3867 17.9333 24.3533 18.1 24.3 18.34C24.26 18.58 24.22 18.8333 24.18 19.1C24.0733 19.7933 23.9733 20.4733 23.88 21.14C23.8 21.7933 23.72 22.5067 23.64 23.28C23.6267 23.5067 23.5933 23.7467 23.54 24C23.4867 24.2533 23.3933 24.4667 23.26 24.64C23.14 24.8133 22.96 24.9 22.72 24.9ZM41.8705 25.2C41.2705 25.2 40.7105 25.0667 40.1905 24.8C39.6838 24.5333 39.2571 24.1733 38.9105 23.72C38.5638 23.2667 38.3371 22.76 38.2305 22.2V21.14C38.2305 20.38 38.3705 19.6133 38.6505 18.84C38.9305 18.0667 39.3171 17.3533 39.8105 16.7C40.3171 16.0467 40.9105 15.5267 41.5905 15.14C42.2838 14.74 43.0305 14.54 43.8305 14.54C44.3371 14.54 44.8238 14.6267 45.2905 14.8C45.7705 14.9733 46.1971 15.1733 46.5705 15.4C46.6505 14.84 46.7505 14.4533 46.8705 14.24C46.9905 14.0267 47.1971 13.92 47.4905 13.92C47.7171 13.92 47.8771 13.9933 47.9705 14.14C48.0638 14.2733 48.1105 14.5133 48.1105 14.86C48.1105 15.66 48.0905 16.4467 48.0505 17.22C48.0238 17.98 48.0105 18.76 48.0105 19.56C48.0105 20.2 48.0438 20.86 48.1105 21.54C48.1905 22.22 48.2305 22.8733 48.2305 23.5C48.2305 23.7 48.2305 23.9 48.2305 24.1C48.2438 24.3 48.2105 24.4667 48.1305 24.6C48.0638 24.72 47.9171 24.78 47.6905 24.78C47.3705 24.78 47.1305 24.6333 46.9705 24.34C46.8238 24.0333 46.7238 23.6667 46.6705 23.24C46.6171 22.8133 46.5638 22.4133 46.5105 22.04C46.3771 22.4 46.1505 22.7533 45.8305 23.1C45.5238 23.4467 45.2105 23.7467 44.8905 24C44.5838 24.24 44.3438 24.4133 44.1705 24.52C44.0105 24.6133 44.0105 24.6 44.1705 24.48C43.8771 24.6933 43.5105 24.8667 43.0705 25C42.6438 25.1333 42.2438 25.2 41.8705 25.2ZM41.6705 23.94C42.2705 23.94 42.8305 23.7667 43.3505 23.42C43.8705 23.0733 44.3238 22.6267 44.7105 22.08C45.1105 21.5333 45.4171 20.96 45.6305 20.36C45.8571 19.76 45.9705 19.2067 45.9705 18.7C45.9705 18.4467 45.9371 18.16 45.8705 17.84C45.8171 17.5067 45.7105 17.1867 45.5505 16.88C45.3905 16.5733 45.1705 16.32 44.8905 16.12C44.6238 15.92 44.2705 15.82 43.8305 15.82C43.2571 15.82 42.7105 16.0067 42.1905 16.38C41.6705 16.74 41.2038 17.2067 40.7905 17.78C40.3905 18.34 40.0771 18.92 39.8505 19.52C39.6238 20.12 39.5105 20.66 39.5105 21.14C39.5105 21.5 39.5705 21.9 39.6905 22.34C39.8238 22.78 40.0438 23.16 40.3505 23.48C40.6705 23.7867 41.1105 23.94 41.6705 23.94ZM58.198 25.2C57.998 25.2 57.8313 25.1533 57.698 25.06C57.578 24.9667 57.4446 24.8 57.298 24.56L55.818 22.14C55.7646 22.0467 55.6646 21.9 55.518 21.7C55.3713 21.5 55.2246 21.3067 55.078 21.12C54.9446 20.9333 54.858 20.82 54.818 20.78C54.658 20.9133 54.458 21.1133 54.218 21.38C53.9913 21.6467 53.7646 21.9267 53.538 22.22L52.918 22.98C52.8513 23.0467 52.778 23.1267 52.698 23.22C52.618 23.3 52.538 23.3867 52.458 23.48C52.2713 23.68 52.1113 23.86 51.978 24.02C51.8446 24.18 51.678 24.3333 51.478 24.48C51.318 24.6 51.1446 24.66 50.958 24.66C50.8113 24.66 50.6846 24.6133 50.578 24.52C50.4713 24.4133 50.418 24.2533 50.418 24.04C50.418 23.6933 50.558 23.3333 50.838 22.96C51.1313 22.5733 51.4913 22.1733 51.918 21.76C52.1313 21.56 52.338 21.3667 52.538 21.18C52.738 20.9933 52.9113 20.8133 53.058 20.64C53.2046 20.4667 53.3446 20.3067 53.478 20.16C53.6246 20.0133 53.8046 19.8067 54.018 19.54C53.978 19.46 53.8646 19.2867 53.678 19.02C53.4913 18.74 53.2846 18.4333 53.058 18.1C52.8313 17.7667 52.618 17.4667 52.418 17.2C52.2313 16.9333 52.1046 16.76 52.038 16.68C51.8246 16.4267 51.5913 16.14 51.338 15.82C51.098 15.5 50.978 15.1667 50.978 14.82C50.978 14.6733 51.038 14.5667 51.158 14.5C51.2913 14.4333 51.4446 14.4 51.618 14.4C51.7646 14.4 51.938 14.4867 52.138 14.66C52.3513 14.8333 52.5313 15.02 52.678 15.22C52.8246 15.4067 53.018 15.66 53.258 15.98C53.498 16.2867 53.7313 16.58 53.958 16.86C54.1846 17.14 54.338 17.34 54.418 17.46C54.4713 17.5 54.5446 17.5933 54.638 17.74C54.7446 17.8867 54.8446 18.0267 54.938 18.16C55.0313 18.28 55.078 18.34 55.078 18.34C55.638 17.7533 56.198 17.1733 56.758 16.6C57.3313 16.0267 57.898 15.4533 58.458 14.88C58.6446 14.6933 58.7846 14.5867 58.878 14.56C58.9846 14.52 59.0913 14.5 59.198 14.5C59.5446 14.5 59.718 14.68 59.718 15.04C59.718 15.1867 59.698 15.3067 59.658 15.4C59.6313 15.4933 59.5713 15.6 59.478 15.72C58.8646 16.3867 58.338 16.9533 57.898 17.42C57.458 17.8733 57.0913 18.2667 56.798 18.6C56.5046 18.9333 56.2513 19.2467 56.038 19.54C56.078 19.7 56.2046 19.9667 56.418 20.34C56.6313 20.7 56.8713 21.0933 57.138 21.52C57.418 21.9467 57.6713 22.3467 57.898 22.72C58.138 23.08 58.3046 23.34 58.398 23.5C58.6646 23.9533 58.798 24.3333 58.798 24.64C58.798 25.0133 58.598 25.2 58.198 25.2Z" fill="white"/>
</g>
<defs>
<filter id="filter0_d_5_47" x="0" y="0" width="78" height="48" filterUnits="userSpaceOnUse" color-interpolation-filters="sRGB">
<feFlood flood-opacity="0" result="BackgroundImageFix"/>
<feColorMatrix in="SourceAlpha" type="matrix" values="0 0 0 0 0 0 0 0 0 0 0 0 0 0 0 0 0 0 127 0" result="hardAlpha"/>
<feOffset dy="4"/>
<feGaussianBlur stdDeviation="2"/>
<feComposite in2="hardAlpha" operator="out"/>
<feColorMatrix type="matrix" values="0 0 0 0 0 0 0 0 0 0 0 0 0 0 0 0 0 0 0.25 0"/>
<feBlend mode="normal" in2="BackgroundImageFix" result="effect1_dropShadow_5_47"/>
<feBlend mode="normal" in="SourceGraphic" in2="effect1_dropShadow_5_47" result="shape"/>
</filter>
</defs>
</svg>
