<svg width="78" height="48" viewBox="0 0 78 48" fill="none" xmlns="http://www.w3.org/2000/svg">
<g filter="url(#filter0_d_5_41)">
<rect x="4" width="70" height="40" fill="#D75D5D"/>
<path d="M22.72 24.9C22.4533 24.9 22.2733 24.8133 22.18 24.64C22.1 24.4667 22.06 24.26 22.06 24.02C22.0733 23.7667 22.08 23.5333 22.08 23.32C22.08 21.9733 22.2133 20.6467 22.48 19.34C22.7467 18.0333 23.06 16.7333 23.42 15.44C23.4467 15.36 23.4933 15.2133 23.56 15C23.6267 14.7733 23.7 14.5333 23.78 14.28C23.86 14.0267 23.9333 13.7933 24 13.58C24.08 13.3667 24.1333 13.22 24.16 13.14C24.3067 12.6867 24.48 12.36 24.68 12.16C24.88 11.9467 25.1667 11.84 25.54 11.84C25.8733 11.84 26.1533 11.96 26.38 12.2C26.62 12.4267 26.8133 12.7067 26.96 13.04C27.12 13.36 27.2467 13.6667 27.34 13.96C27.5667 14.6533 27.8 15.36 28.04 16.08C28.28 16.7867 28.5067 17.4867 28.72 18.18C28.8267 18.5267 28.9733 18.7 29.16 18.7C29.4 18.7 29.6267 18.4133 29.84 17.84C29.9467 17.5467 30.0733 17.1933 30.22 16.78C30.38 16.3533 30.54 15.9267 30.7 15.5C30.86 15.06 31 14.6667 31.12 14.32C31.2533 13.9733 31.3467 13.7267 31.4 13.58C31.6133 13.0333 31.8467 12.5933 32.1 12.26C32.3667 11.9133 32.74 11.74 33.22 11.74C33.58 11.74 33.8733 11.8667 34.1 12.12C34.3267 12.36 34.5133 12.66 34.66 13.02C34.8067 13.3667 34.9267 13.7067 35.02 14.04C35.38 15.4 35.6533 16.78 35.84 18.18C36.04 19.58 36.14 20.9733 36.14 22.36V23.14C36.0867 23.3133 36.0133 23.4267 35.92 23.48C35.8267 23.52 35.66 23.54 35.42 23.54C35.0867 23.54 34.8467 23.32 34.7 22.88C34.62 22.64 34.5667 22.3933 34.54 22.14C34.5133 21.8867 34.4867 21.6333 34.46 21.38C34.3267 20.02 34.2067 18.9333 34.1 18.12C34.0067 17.2933 33.92 16.6533 33.84 16.2C33.7733 15.7467 33.7133 15.4 33.66 15.16C33.6067 14.9067 33.5533 14.6733 33.5 14.46C33.46 14.22 33.3467 14.1 33.16 14.1C32.96 14.1 32.8 14.22 32.68 14.46C32.6 14.7 32.48 15.0467 32.32 15.5C32.1733 15.9533 32.0067 16.4333 31.82 16.94C31.6333 17.4467 31.4667 17.9067 31.32 18.32C31.1733 18.7333 31.0733 19.02 31.02 19.18C30.9533 19.3533 30.86 19.5933 30.74 19.9C30.62 20.1933 30.4733 20.4867 30.3 20.78C30.14 21.0733 29.9533 21.3267 29.74 21.54C29.54 21.74 29.3267 21.84 29.1 21.84C28.8867 21.84 28.6933 21.7533 28.52 21.58C28.3467 21.3933 28.2 21.18 28.08 20.94C27.9733 20.7 27.8867 20.5 27.82 20.34L26.16 15.44C26.1467 15.3733 26.12 15.28 26.08 15.16C26.04 15.0267 25.9733 14.9067 25.88 14.8C25.8 14.68 25.68 14.62 25.52 14.62C25.3733 14.62 25.2533 14.6867 25.16 14.82C25.08 14.9533 25.02 15.1067 24.98 15.28C24.94 15.4533 24.9133 15.5933 24.9 15.7C24.8733 15.8333 24.8333 16.0067 24.78 16.22C24.7267 16.42 24.6733 16.6333 24.62 16.86C24.5667 17.06 24.52 17.2533 24.48 17.44C24.4533 17.6133 24.4267 17.7467 24.4 17.84C24.3867 17.9333 24.3533 18.1 24.3 18.34C24.26 18.58 24.22 18.8333 24.18 19.1C24.0733 19.7933 23.9733 20.4733 23.88 21.14C23.8 21.7933 23.72 22.5067 23.64 23.28C23.6267 23.5067 23.5933 23.7467 23.54 24C23.4867 24.2533 23.3933 24.4667 23.26 24.64C23.14 24.8133 22.96 24.9 22.72 24.9ZM40.5505 11.92C40.1105 11.92 39.7571 11.82 39.4905 11.62C39.2371 11.4067 39.1105 11.1333 39.1105 10.8C39.1105 10.4933 39.2571 10.26 39.5505 10.1C39.8438 9.92667 40.2171 9.84 40.6705 9.84C41.1238 9.84 41.4771 9.94667 41.7305 10.16C41.9838 10.36 42.1105 10.64 42.1105 11C42.1105 11.2933 41.9638 11.52 41.6705 11.68C41.3905 11.84 41.0171 11.92 40.5505 11.92ZM39.5105 24.7C39.3238 24.7 39.1771 24.58 39.0705 24.34C38.9771 24.1 38.9105 23.7933 38.8705 23.42C38.8438 23.0467 38.8305 22.66 38.8305 22.26C38.8305 22.0733 38.8305 21.8867 38.8305 21.7C38.8438 21.5 38.8505 21.3133 38.8505 21.14C38.8505 21.0867 38.8705 20.9133 38.9105 20.62C38.9505 20.3133 38.9971 19.96 39.0505 19.56C39.1038 19.16 39.1571 18.7667 39.2105 18.38C39.2771 17.98 39.3305 17.6667 39.3705 17.44C39.4105 17.2667 39.4571 17.04 39.5105 16.76C39.5638 16.4667 39.6571 16.2067 39.7905 15.98C39.9371 15.74 40.1438 15.62 40.4105 15.62C40.7171 15.62 40.9305 15.68 41.0505 15.8C41.1838 15.9067 41.2505 16.08 41.2505 16.32C41.2505 16.3867 41.2438 16.4533 41.2305 16.52C41.2305 16.5867 41.2238 16.66 41.2105 16.74C41.1438 17.1667 41.0571 17.7 40.9505 18.34C40.8571 18.9667 40.7705 19.6267 40.6905 20.32C40.6238 21 40.6038 21.6467 40.6305 22.26C40.6438 22.4067 40.6571 22.58 40.6705 22.78C40.6971 22.9667 40.7105 23.1533 40.7105 23.34C40.7105 23.6867 40.6371 24 40.4905 24.28C40.3438 24.56 40.0171 24.7 39.5105 24.7ZM44.7048 24.6C44.5048 24.6 44.3582 24.5533 44.2648 24.46C44.1715 24.3667 44.1048 24.2333 44.0648 24.06C43.9982 23.8333 43.9648 23.5933 43.9648 23.34V22.56C43.9648 22.1333 43.9782 21.7667 44.0048 21.46C44.0315 21.14 44.0448 20.7933 44.0448 20.42C44.0448 20.2867 44.0382 20.1467 44.0248 20C44.0248 19.84 44.0182 19.6733 44.0048 19.5C43.9515 18.8467 43.8782 18.16 43.7848 17.44C43.6915 16.72 43.6448 16.0667 43.6448 15.48V14.7C43.7248 14.5133 43.7982 14.4 43.8648 14.36C43.9448 14.32 44.0515 14.3 44.1848 14.3C44.5048 14.3 44.7315 14.4267 44.8648 14.68C44.9982 14.92 45.0848 15.2067 45.1248 15.54C45.1782 15.86 45.2115 16.14 45.2248 16.38C45.2382 16.4733 45.2582 16.6733 45.2848 16.98C45.3248 17.2867 45.3648 17.6333 45.4048 18.02C45.4448 18.3933 45.4782 18.7533 45.5048 19.1C45.5448 19.4467 45.5648 19.7133 45.5648 19.9C45.7782 19.46 46.0315 19.0067 46.3248 18.54C46.6182 18.06 46.9115 17.6133 47.2048 17.2C47.5115 16.7867 47.7848 16.4533 48.0248 16.2C48.3715 15.8133 48.7782 15.5133 49.2448 15.3C49.7248 15.0733 50.1982 14.96 50.6648 14.96C51.2115 14.96 51.6915 15.1133 52.1048 15.42C52.5182 15.7267 52.8715 16.1267 53.1648 16.62C53.4715 17.1133 53.7248 17.6467 53.9248 18.22C54.1248 18.78 54.2848 19.3267 54.4048 19.86C54.5782 20.5667 54.7048 21.1867 54.7848 21.72C54.8782 22.2533 54.9582 22.86 55.0248 23.54C55.0248 23.8333 54.9648 24.0667 54.8448 24.24C54.7248 24.4133 54.5782 24.5 54.4048 24.5C54.1515 24.5 53.9715 24.4467 53.8648 24.34C53.7582 24.22 53.6848 24.0333 53.6448 23.78C53.5515 23.2733 53.4582 22.7 53.3648 22.06C53.2848 21.42 53.1715 20.7733 53.0248 20.12C52.8782 19.4533 52.6648 18.8467 52.3848 18.3C52.2782 18.0467 52.1448 17.7867 51.9848 17.52C51.8248 17.2533 51.6315 17.0267 51.4048 16.84C51.1782 16.6533 50.8982 16.56 50.5648 16.56C50.1248 16.56 49.6782 16.7533 49.2248 17.14C48.7848 17.5267 48.3648 18.0267 47.9648 18.64C47.5648 19.2533 47.1982 19.9133 46.8648 20.62C46.5315 21.3133 46.2515 21.9733 46.0248 22.6C45.9582 22.8133 45.8715 23.0533 45.7648 23.32C45.6715 23.5733 45.5715 23.8133 45.4648 24.04C45.3715 24.2267 45.2648 24.3667 45.1448 24.46C45.0382 24.5533 44.8915 24.6 44.7048 24.6Z" fill="white"/>
</g>
<defs>
<filter id="filter0_d_5_41" x="0" y="0" width="78" height="48" filterUnits="userSpaceOnUse" color-interpolation-filters="sRGB">
<feFlood flood-opacity="0" result="BackgroundImageFix"/>
<feColorMatrix in="SourceAlpha" type="matrix" values="0 0 0 0 0 0 0 0 0 0 0 0 0 0 0 0 0 0 127 0" result="hardAlpha"/>
<feOffset dy="4"/>
<feGaussianBlur stdDeviation="2"/>
<feComposite in2="hardAlpha" operator="out"/>
<feColorMatrix type="matrix" values="0 0 0 0 0 0 0 0 0 0 0 0 0 0 0 0 0 0 0.25 0"/>
<feBlend mode="normal" in2="BackgroundImageFix" result="effect1_dropShadow_5_41"/>
<feBlend mode="normal" in="SourceGraphic" in2="effect1_dropShadow_5_41" result="shape"/>
</filter>
</defs>
</svg>
