<svg width="138" height="138" viewBox="0 0 138 138" fill="none" xmlns="http://www.w3.org/2000/svg">
<g filter="url(#filter0_d_5_6)">
<rect x="4" width="130" height="130" rx="65" fill="#FF0000"/>
<rect x="26" y="22" width="85" height="85" rx="42.5" fill="white"/>
<path d="M42.34 73.3C41.86 73.3 41.49 73.12 41.23 72.76C40.99 72.4 40.82 71.96 40.72 71.44C40.64 70.92 40.59 70.41 40.57 69.91C40.57 69.41 40.57 69.03 40.57 68.77V65.44C40.57 63.94 40.65 62.39 40.81 60.79C40.97 59.19 41.05 57.49 41.05 55.69C40.01 55.69 39.32 55.6 38.98 55.42C38.66 55.24 38.5 54.85 38.5 54.25C38.5 53.91 38.68 53.61 39.04 53.35C39.4 53.09 39.9 52.92 40.54 52.84C40.72 52.78 41.06 52.72 41.56 52.66C42.08 52.6 42.66 52.55 43.3 52.51C43.94 52.45 44.55 52.41 45.13 52.39C45.73 52.35 46.2 52.33 46.54 52.33C48.52 52.33 50.14 52.5 51.4 52.84C52.66 53.16 53.59 53.71 54.19 54.49C54.81 55.27 55.12 56.35 55.12 57.73C55.12 58.71 54.86 59.65 54.34 60.55C53.84 61.43 53.16 62.22 52.3 62.92C51.44 63.62 50.47 64.19 49.39 64.63C48.31 65.07 47.21 65.34 46.09 65.44C45.89 65.46 45.68 65.48 45.46 65.5C45.24 65.5 45 65.5 44.74 65.5C44.14 65.5 43.55 65.47 42.97 65.41C42.97 66.51 42.99 67.46 43.03 68.26C43.09 69.04 43.12 69.78 43.12 70.48V71.41C43.12 71.75 43.09 72.09 43.03 72.43C42.95 72.77 42.85 73 42.73 73.12C42.63 73.24 42.5 73.3 42.34 73.3ZM46.63 62.92C47.09 62.92 47.67 62.77 48.37 62.47C49.07 62.15 49.77 61.74 50.47 61.24C51.17 60.72 51.75 60.15 52.21 59.53C52.69 58.91 52.93 58.3 52.93 57.7C52.93 56.88 52.72 56.28 52.3 55.9C51.88 55.5 51.36 55.23 50.74 55.09C50.14 54.95 49.53 54.83 48.91 54.73C48.59 54.67 48.23 54.63 47.83 54.61C47.45 54.59 47.06 54.58 46.66 54.58C45.68 54.58 44.89 54.63 44.29 54.73C44.15 54.75 44.01 54.82 43.87 54.94C43.73 55.04 43.64 55.21 43.6 55.45C43.5 56.19 43.41 57.01 43.33 57.91C43.25 58.81 43.18 59.7 43.12 60.58C43.06 61.44 43.01 62.22 42.97 62.92H46.63ZM60.5366 73.15C60.1566 73.15 59.8666 73 59.6666 72.7C59.4666 72.4 59.3266 72.03 59.2466 71.59C59.1666 71.15 59.1166 70.71 59.0966 70.27C59.0966 69.83 59.0966 69.48 59.0966 69.22C59.0966 69.06 59.0866 68.88 59.0666 68.68C59.0666 68.48 59.0666 68.28 59.0666 68.08C59.0666 67.08 59.0966 65.87 59.1566 64.45C59.2166 63.01 59.2966 61.5 59.3966 59.92C59.5166 58.32 59.6466 56.76 59.7866 55.24C59.9466 53.72 60.1166 52.37 60.2966 51.19C60.4566 50.61 60.6666 50.19 60.9266 49.93C61.2066 49.67 61.4766 49.54 61.7366 49.54C61.9766 49.54 62.1866 49.65 62.3666 49.87C62.5666 50.09 62.6666 50.4 62.6666 50.8C62.6666 50.88 62.6666 50.95 62.6666 51.01C62.6666 51.07 62.6566 51.14 62.6366 51.22C62.1366 53.64 61.8166 56.17 61.6766 58.81C61.5366 61.45 61.4666 63.99 61.4666 66.43C61.4666 67.43 61.4766 68.32 61.4966 69.1C61.5366 69.86 61.5566 70.65 61.5566 71.47C61.5566 71.91 61.4566 72.3 61.2566 72.64C61.0766 72.98 60.8366 73.15 60.5366 73.15ZM71.0889 73.3C70.1889 73.3 69.3489 73.1 68.5689 72.7C67.8089 72.3 67.1689 71.76 66.6489 71.08C66.1289 70.4 65.7889 69.64 65.6289 68.8V67.21C65.6289 66.07 65.8389 64.92 66.2589 63.76C66.6789 62.6 67.2589 61.53 67.9989 60.55C68.7589 59.57 69.6489 58.79 70.6689 58.21C71.7089 57.61 72.8289 57.31 74.0289 57.31C74.7889 57.31 75.5189 57.44 76.2189 57.7C76.9389 57.96 77.5789 58.26 78.1389 58.6C78.2589 57.76 78.4089 57.18 78.5889 56.86C78.7689 56.54 79.0789 56.38 79.5189 56.38C79.8589 56.38 80.0989 56.49 80.2389 56.71C80.3789 56.91 80.4489 57.27 80.4489 57.79C80.4489 58.99 80.4189 60.17 80.3589 61.33C80.3189 62.47 80.2989 63.64 80.2989 64.84C80.2989 65.8 80.3489 66.79 80.4489 67.81C80.5689 68.83 80.6289 69.81 80.6289 70.75C80.6289 71.05 80.6289 71.35 80.6289 71.65C80.6489 71.95 80.5989 72.2 80.4789 72.4C80.3789 72.58 80.1589 72.67 79.8189 72.67C79.3389 72.67 78.9789 72.45 78.7389 72.01C78.5189 71.55 78.3689 71 78.2889 70.36C78.2089 69.72 78.1289 69.12 78.0489 68.56C77.8489 69.1 77.5089 69.63 77.0289 70.15C76.5689 70.67 76.0989 71.12 75.6189 71.5C75.1589 71.86 74.7989 72.12 74.5389 72.28C74.2989 72.42 74.2989 72.4 74.5389 72.22C74.0989 72.54 73.5489 72.8 72.8889 73C72.2489 73.2 71.6489 73.3 71.0889 73.3ZM70.7889 71.41C71.6889 71.41 72.5289 71.15 73.3089 70.63C74.0889 70.11 74.7689 69.44 75.3489 68.62C75.9489 67.8 76.4089 66.94 76.7289 66.04C77.0689 65.14 77.2389 64.31 77.2389 63.55C77.2389 63.17 77.1889 62.74 77.0889 62.26C77.0089 61.76 76.8489 61.28 76.6089 60.82C76.3689 60.36 76.0389 59.98 75.6189 59.68C75.2189 59.38 74.6889 59.23 74.0289 59.23C73.1689 59.23 72.3489 59.51 71.5689 60.07C70.7889 60.61 70.0889 61.31 69.4689 62.17C68.8689 63.01 68.3989 63.88 68.0589 64.78C67.7189 65.68 67.5489 66.49 67.5489 67.21C67.5489 67.75 67.6389 68.35 67.8189 69.01C68.0189 69.67 68.3489 70.24 68.8089 70.72C69.2889 71.18 69.9489 71.41 70.7889 71.41ZM88.2602 80.86C88.2002 80.86 88.1102 80.78 87.9902 80.62C87.8702 80.46 87.8102 80.22 87.8102 79.9C87.8102 79.62 87.8402 79.34 87.9002 79.06C87.9802 78.78 88.0802 78.5 88.2002 78.22C88.3402 77.92 88.4802 77.62 88.6202 77.32C88.7602 77.02 88.9002 76.72 89.0402 76.42C89.1602 76.12 89.3002 75.74 89.4602 75.28C89.6402 74.82 89.8102 74.35 89.9702 73.87C90.1302 73.41 90.2602 73.01 90.3602 72.67C90.4802 72.33 90.5402 72.14 90.5402 72.1V71.32C89.3002 71.32 88.2702 71.09 87.4502 70.63C86.6302 70.17 85.9802 69.56 85.5002 68.8C85.0202 68.04 84.6702 67.2 84.4502 66.28C84.2302 65.34 84.0802 64.39 84.0002 63.43C83.9402 62.45 83.9102 61.54 83.9102 60.7C83.9102 60.3 83.9202 59.91 83.9402 59.53C83.9602 59.15 84.0102 58.77 84.0902 58.39C84.1902 57.93 84.3102 57.63 84.4502 57.49C84.6102 57.33 84.7602 57.25 84.9002 57.25C85.3602 57.25 85.6802 57.43 85.8602 57.79C86.0602 58.13 86.1602 58.63 86.1602 59.29C86.1602 59.75 86.1302 60.19 86.0702 60.61C86.0102 61.01 85.9802 61.45 85.9802 61.93V62.23C85.9802 62.41 86.0102 62.76 86.0702 63.28C86.1502 63.78 86.2302 64.29 86.3102 64.81C86.3902 65.33 86.4502 65.72 86.4902 65.98C86.5902 66.42 86.7402 66.89 86.9402 67.39C87.1402 67.87 87.4202 68.28 87.7802 68.62C88.1602 68.96 88.6402 69.13 89.2202 69.13C90.0002 69.13 90.6902 68.85 91.2902 68.29C91.9102 67.71 92.4702 66.97 92.9702 66.07C93.4902 65.15 93.9602 64.19 94.3802 63.19C94.5402 62.85 94.6902 62.51 94.8302 62.17C94.9702 61.83 95.1102 61.5 95.2502 61.18C95.4102 60.86 95.5602 60.56 95.7002 60.28C95.8402 60 95.9902 59.73 96.1502 59.47C96.4702 58.95 96.7602 58.58 97.0202 58.36C97.3002 58.14 97.5702 58.03 97.8302 58.03C98.0902 58.03 98.2802 58.1 98.4002 58.24C98.5402 58.38 98.6102 58.62 98.6102 58.96C98.6102 59.58 98.5002 60.19 98.2802 60.79C98.0802 61.39 97.8202 61.99 97.5002 62.59C97.1602 63.21 96.8002 63.82 96.4202 64.42C96.0402 65.02 95.7102 65.62 95.4302 66.22C95.2702 66.58 95.0502 67.07 94.7702 67.69C94.5102 68.29 94.2302 68.92 93.9302 69.58C93.6502 70.22 93.4002 70.79 93.1802 71.29C92.9802 71.79 92.8602 72.1 92.8202 72.22C92.8002 72.32 92.7202 72.55 92.5802 72.91C92.4402 73.25 92.2802 73.66 92.1002 74.14C91.9402 74.62 91.7702 75.1 91.5902 75.58C91.4102 76.08 91.2502 76.5 91.1102 76.84C90.9902 77.2 90.9102 77.43 90.8702 77.53C90.7502 77.89 90.5802 78.33 90.3602 78.85C90.1402 79.37 89.8602 79.83 89.5202 80.23C89.2002 80.65 88.7802 80.86 88.2602 80.86Z" fill="black"/>
</g>
<defs>
<filter id="filter0_d_5_6" x="0" y="0" width="138" height="138" filterUnits="userSpaceOnUse" color-interpolation-filters="sRGB">
<feFlood flood-opacity="0" result="BackgroundImageFix"/>
<feColorMatrix in="SourceAlpha" type="matrix" values="0 0 0 0 0 0 0 0 0 0 0 0 0 0 0 0 0 0 127 0" result="hardAlpha"/>
<feOffset dy="4"/>
<feGaussianBlur stdDeviation="2"/>
<feComposite in2="hardAlpha" operator="out"/>
<feColorMatrix type="matrix" values="0 0 0 0 0 0 0 0 0 0 0 0 0 0 0 0 0 0 0.25 0"/>
<feBlend mode="normal" in2="BackgroundImageFix" result="effect1_dropShadow_5_6"/>
<feBlend mode="normal" in="SourceGraphic" in2="effect1_dropShadow_5_6" result="shape"/>
</filter>
</defs>
</svg>
